<svg width="260" height="163" viewBox="0 0 260 163" fill="none" xmlns="http://www.w3.org/2000/svg">
<path d="M33.6 19.72C58.09 17.92 73.6701 39.47 67.1001 62.55C58.5801 92.48 14.08 92.34 5.67005 62.36C-0.0299511 42.06 11.87 21.32 33.6 19.72ZM60.26 49.61C58.97 33.71 44.15 23.18 28.66 28.21C9.57005 34.41 6.88005 62.8 23.16 73.63C34.54 81.2 50.74 77.52 57.18 65.35C57.56 64.63 58.72 62.52 58.46 61.85C58.08 60.86 55.0701 57.83 54.1301 57.05C46.1601 50.4 34.7 50.29 24.96 52.09L17.81 53.57C29.7 44.14 46.79 42.64 60.25 49.61H60.26Z" fill="black"/>
<path d="M78.01 19.41C91.92 20.24 115.22 15 120.27 32.89C121.79 38.26 121.65 44.69 118.89 49.61C115.45 55.76 108.7 59.13 101.74 59.31L120.68 84.83H110.01L87.59 54.27C87.53 53.78 87.61 53.96 87.94 53.91C96.84 52.71 111.53 55.85 112.76 42.52C114.26 26.23 98.2501 27.15 86.6301 27.3V52.6C86.7501 53.56 87.52 53.45 86.61 54.25L86.6301 84.82H78V19.41H78.01Z" fill="black"/>
<path d="M222.59 19.41V62.2C222.92 69.72 224.28 77.32 233.26 78.12C242.24 78.92 246.55 73.81 247.05 65.07V19.41H255.91V63.4C255.19 78.4 248.6 87.02 232.76 86.05C220.41 85.29 214.67 76.45 213.94 64.84V19.41H222.59Z" fill="black"/>
<path d="M203.41 19.41V27.08H178.36L178 27.44V48.17H203.41V55.6H178.36L178 55.96V76.45H203.05L203.41 76.81V84.48L203.05 84.84H169.48L169.12 84.48V19.41H203.41Z" fill="black"/>
<path d="M139.39 19.41V76.45H161.45V84.84H130.52V19.41H139.39Z" fill="black"/>
<path d="M259.04 104.25H0.800049V102.09H258.68C259.31 102.6 258.97 103.52 259.04 104.25Z" fill="black"/>
<path d="M259.04 0H0.800049V1.92H259.04V0Z" fill="black"/>
<path d="M173.92 120.78V133L181.95 121.02L183.75 120.78V136.36H181.83V124.38L173.87 136.31L172 136.36V120.78H173.92Z" fill="black"/>
<path d="M70.04 120.61C80.4 119.39 81.3501 135.47 72.1001 136.57C61.7301 137.8 60.65 121.71 70.04 120.61ZM69.55 122.51C63.92 123.65 64.14 134.57 70.76 134.85C78.83 135.19 78.58 120.68 69.55 122.51Z" fill="black"/>
<path d="M195.02 134.68H201.97V120.78H203.89V134.68H205.81V139.47H204.37C204.16 139.26 204.76 136.75 204.01 136.35H193.1V120.77H195.02V134.68Z" fill="black"/>
<path d="M35.33 134.68H42.28V120.78H44.2001V134.68H46.12V139.47H44.68C44.47 139.26 45.07 136.75 44.32 136.35H33.41V120.77H35.33V134.68Z" fill="black"/>
<path d="M50.67 120.78V133.24L58.71 121.02L60.5 120.78V136.36H58.83V124.14L50.6301 136.31L48.76 136.36V120.78H50.67Z" fill="black"/>
<path d="M122.37 136.36H120.45V122.46H115.17C114.79 125.51 115.19 134.37 112.38 136.08C111.14 136.84 108.4 136.78 109.53 135.14C109.74 134.83 110.94 134.87 111.47 134.44C113.45 132.85 113.16 123.41 113.5 120.77H122.37V136.36Z" fill="black"/>
<path d="M5.84005 120.78V127.85L6.19005 128.21H13.75V120.78H15.67V136.36H13.75V129.89H5.84005V136.36H4.16005V120.78H5.84005Z" fill="black"/>
<path d="M127.88 120.78V126.77H131.6C131.7 126.77 133.21 127.06 133.41 127.12C136.49 128.06 137.13 132.13 135.61 134.61C135.21 135.26 133.73 136.36 133.04 136.36H125.97V120.78H127.89H127.88ZM127.88 134.68H132.56C133.63 134.68 134.54 132.64 134.55 131.69C134.56 130.68 133.66 128.69 132.56 128.69H127.88V134.68Z" fill="black"/>
<path d="M140.83 120.78V127.85L141.19 128.21H148.74V120.78H150.42V136.36H148.74V129.89H140.83V136.36H139.15V120.78H140.83Z" fill="black"/>
<path d="M222.83 120.78V128.21H230.39L230.75 127.85V120.78H232.43V136.36H230.75V129.89H222.83V136.36H221.16V120.78H222.83Z" fill="black"/>
<path d="M83.2801 120.78V127.85L83.64 128.21H91.2001V120.78H92.87V136.36H91.2001V129.89H83.2801V136.36H81.61V120.78H83.2801Z" fill="black"/>
<path d="M102.92 120.81L108.46 136.36L106.57 136.33C106.19 135.63 105.55 132.77 104.94 132.57C104.5 132.42 99.9001 132.43 99.2101 132.52C99.0101 132.55 98.8 132.52 98.61 132.64L97.4 136.34L95.51 136.36L100.9 121.02L102.91 120.81H102.92ZM104.62 131.09C103.86 128.84 103.2 125.89 102.23 123.77C102.12 123.53 102.07 123.21 101.74 123.18L99.34 131.09H104.62Z" fill="black"/>
<path d="M25.46 120.82L31.01 136.36L29.13 136.33L27.87 132.56L21.16 132.68L19.96 136.34L18.07 136.36L23.46 121.02L25.47 120.82H25.46ZM27.18 131.09C26.48 128.77 25.79 125.96 24.79 123.77C24.68 123.53 24.64 123.21 24.3 123.18L21.9 131.09H27.18Z" fill="black"/>
<path d="M217.8 120.78V122.46H210.37V127.73H216.36V129.41H210.37V134.68H218.04V136.36H208.69V120.78H217.8Z" fill="black"/>
<path d="M249.93 130.37V136.36H248.25V120.78H254.84C254.95 120.78 256.27 121.4 256.48 121.54C259.21 123.33 258.91 128.58 255.84 129.93C255.66 130.01 254.67 130.36 254.6 130.36H249.92L249.93 130.37ZM254.13 128.69C256.18 128.69 257.28 124.77 255.57 123.17C255.44 123.05 254.43 122.46 254.36 122.46H249.92V128.69H254.13Z" fill="black"/>
<path d="M155.94 120.78V126.77H159.42C159.52 126.77 161.04 127.06 161.23 127.12C164.35 128.07 164.96 132.11 163.43 134.61C163.03 135.26 161.55 136.36 160.86 136.36H154.27V120.78H155.95H155.94ZM160.38 134.68C160.62 134.68 161.55 133.96 161.76 133.67C162.54 132.6 162.59 130.72 161.81 129.65C161.65 129.42 160.52 128.69 160.37 128.69H155.93V134.68H160.38Z" fill="black"/>
<path d="M55.23 148.1V159.13H59.43L59.7901 158.77V148.1H60.98V158.77L61.34 159.13H65.54V148.1H66.98V160.32H53.7901V148.1H55.23Z" fill="black"/>
<path d="M181.59 148.82C188.96 148.89 189.1 159.25 181.59 159.12V160.32H180.15V159.12C172.78 159.08 172.95 148.92 180.15 148.81V147.61H181.59V148.82ZM180.15 150.26C174.96 150.08 174.79 157.98 180.15 157.69V150.26ZM181.59 157.69C187.16 158.01 187.02 150.03 181.59 150.26V157.69Z" fill="black"/>
<path d="M135.2 148.1C137.37 148.54 137.84 151.48 136.62 153.11C136.35 153.47 135.65 153.5 135.8 154.08C138.04 154.51 138.56 157.61 137.24 159.24C136.96 159.59 135.79 160.31 135.44 160.31H129.81V148.09C131.39 148.31 133.73 147.79 135.2 148.09V148.1ZM131.24 153.37C133.13 153.3 135.82 154 135.82 151.33C135.82 148.66 133.11 149.36 131.24 149.29V153.37ZM131.24 159.13C132.97 159.16 136.61 159.53 136.5 156.87C136.39 154.41 133.02 154.48 131.24 154.57V159.13Z" fill="black"/>
<path d="M34.73 148.1C37 148.56 37.47 151.57 36.05 153.26C35.71 153.66 35.15 153.44 35.33 154.09C37.92 154.59 38.2101 158.51 36.1301 159.81C35.9801 159.9 35.03 160.33 34.97 160.33H29.34V148.11C30.92 148.33 33.26 147.81 34.73 148.11V148.1ZM30.77 153.37C37.14 154.42 37.12 148.28 30.77 149.3V153.37ZM30.77 159.13C32.51 159.17 36.17 159.52 36.06 156.86C35.96 154.38 32.57 154.49 30.77 154.58V159.13Z" fill="black"/>
<path d="M164.57 148.1V157.69L170.92 148.34L172.48 148.1V160.32H171.04V150.74L164.4 160.28L163.13 160.32V148.1H164.57Z" fill="black"/>
<path d="M20.16 147.93C28.39 146.8 29.32 160.1 21.29 160.57C13.81 161.01 12.88 148.93 20.16 147.93ZM20.16 149.36C15.49 150.14 15.48 158.27 20.16 159.07C27.07 160.24 27.12 148.19 20.16 149.36Z" fill="black"/>
<path d="M190.94 148.1V157.69L197.23 148.15L198.62 148.1V160.32H197.18V150.74L190.9 160.27L189.5 160.32V148.1H190.94Z" fill="black"/>
<path d="M249.21 148.1V157.69L255.49 148.15L256.88 148.1V160.32H255.44V150.74L249.16 160.27L247.77 160.32V148.1H249.21Z" fill="black"/>
<path d="M111.58 148.1V160.32H110.14V155.77L107.5 155.89C106.87 156.2 105.23 160.03 104.82 160.27C104.47 160.47 103.64 160.25 103.19 160.32L106.06 155.65C103.68 154.69 102.66 152 103.94 149.69C104.17 149.27 105.57 148.1 105.95 148.1H111.58ZM110.14 149.3C108.15 149.23 105.13 148.93 104.88 151.61C104.79 152.62 105.63 154.34 106.67 154.34H110.15V149.31L110.14 149.3Z" fill="black"/>
<path d="M236.98 148.1V157.69L243.21 148.45L244.65 148.1V160.32H243.45V150.74L237.1 160.08L235.54 160.32V148.1H236.98Z" fill="black"/>
<path d="M92.87 148.1V157.69L99.4 148.15L100.79 148.1V160.32H99.3501V150.74L93.12 159.97L91.68 160.32V148.1H92.87Z" fill="black"/>
<path d="M245.61 120.78V122.46H241.3V136.36H239.38V122.46H235.06V120.78H245.61Z" fill="black"/>
<path d="M224.75 159.12H230.14L230.5 158.76V148.1H231.7V158.76C232.09 159.3 232.8 159.11 233.38 159.12V162.95L232.29 162.72L232.18 160.31H223.31V148.09H224.75V159.12Z" fill="black"/>
<path d="M81.1301 148.1V153.85H87.12V148.1H88.5601V160.32H87.12V155.29H81.1301V160.32H79.69V148.1H81.1301Z" fill="black"/>
<path d="M12.79 148.1V160.32H11.35V149.3H5.60005V160.32H4.16005V148.1H12.79Z" fill="black"/>
<path d="M120.45 148.1V154.81L125.47 148.44L127.41 148.1L123.17 153.73L127.66 160.32C127.24 160.29 126.75 160.4 126.35 160.32C125.24 160.09 123.33 155.93 122.26 155.05C122.13 155.02 120.47 156.72 120.47 156.85V160.32H119.03V148.1H120.47H120.45Z" fill="black"/>
<path d="M202.93 148.1V154.81L208.07 148.32L209.88 148.1L205.81 153.73L210.12 160.32C209.51 160.3 208.83 160.48 208.3 160.1C207.52 159.54 205.56 155.82 204.84 154.81C202.85 156.32 202.72 157.94 202.93 160.32H201.49V148.1H202.93Z" fill="black"/>
<path d="M160.25 148.1V160.32H158.81V149.3H154.73C154.24 151.9 154.87 158.93 152.16 160.27C151.49 160.6 150.88 160.66 150.21 160.29L150.18 159.13C152.11 159.36 152.37 158.06 152.71 156.5C153.28 153.9 153.18 150.76 153.3 148.1H160.25Z" fill="black"/>
<path d="M221.39 160.32L219.99 160.29L219.12 157.68L213.87 157.48L212.73 160.29L211.33 160.32L215.8 148.13H216.93L221.4 160.32H221.39ZM214.2 156.01H218.52C217.85 154.22 217.35 152.33 216.66 150.55C216.54 150.25 216.77 149.92 216.24 150.02L214.2 156.01Z" fill="black"/>
<path d="M149.22 160.32L147.81 160.3L146.67 157.49L141.53 157.59C140.95 159 141.22 160.78 139.16 160.32L143.51 148.13C144.06 148.04 144.81 147.94 145.14 148.48L149.24 160.32H149.22ZM146.34 156.01L144.42 150.02C144.08 150.05 144.04 150.37 143.93 150.61C143.17 152.26 142.77 154.33 142.02 156.01H146.34Z" fill="black"/>
<path d="M41.32 148.1V152.89H44.8C45.03 152.89 46.61 153.7 46.85 153.96C48.01 155.25 47.84 158.66 46.35 159.71C46.18 159.83 45.1301 160.32 45.0401 160.32H39.8801V148.1H41.32ZM41.32 159.13C43.5 159.13 46.1301 159.52 46.1301 156.61C46.1301 153.7 43.43 154.16 41.32 154.09V159.13Z" fill="black"/>
<path d="M77.05 148.1V149.3H71.29V153.61H75.8501V154.81H71.29V159.13H77.29V160.32H69.86V148.1H77.05Z" fill="black"/>
<path d="M168.41 120.78H166.49V136.36H168.41V120.78Z" fill="black"/>
<path d="M50.91 148.1H49.47V160.32H50.91V148.1Z" fill="black"/>
<path d="M176.04 116.27C176.1 116.31 176.34 117.1 176.66 117.44C177.92 118.79 179.67 117.98 179.68 116.24C180.26 116.22 180.96 116.05 181.33 116.58C180.5 119.99 175.76 120.13 174.66 116.78C174.57 116.18 175.71 116.06 176.03 116.26L176.04 116.27Z" fill="black"/>
</svg>
