<svg width="260" height="168" viewBox="0 0 260 168" fill="none" xmlns="http://www.w3.org/2000/svg">
<path d="M0.0700684 102.1L258.17 102.09L258.32 104.12L0.0700684 104.26V102.1Z" fill="black"/>
<path d="M0.0700684 0H258.17L258.32 1.78L0.0700684 1.92V0Z" fill="black"/>
<path d="M32.8701 19.73C55.9401 18.03 71.2701 36.64 67.3801 59.01C61.5201 92.7 12.4201 93.68 4.70007 61.17C-0.0399313 41.2 11.6401 21.29 32.8701 19.73ZM59.5301 48.89C57.9501 33.34 43.1001 23.21 27.9901 28.27C6.07007 35.62 6.65007 70.38 29.0801 76.57C40.2101 79.64 51.9401 74.95 57.0201 64.47C57.2801 63.94 58.3101 61.6 58.3401 61.2C58.4001 60.14 54.9601 57.17 54.0001 56.45C45.9501 50.42 35.2001 50.36 25.6801 52.07L18.5301 53.55C29.8801 44.33 46.3301 42.8 59.5301 48.87V48.89Z" fill="black"/>
<path d="M77.2801 19.42C84.5001 19.73 92.0501 19.02 99.2301 19.42C111.61 20.1 120.12 25.87 120.69 38.95C121.19 50.57 112.7 59.02 101.26 59.33L120.2 84.86H109.29L86.8701 54.06C94.1601 52.93 104.54 55.32 109.77 48.68C112.55 45.16 112.97 38.85 111.2 34.78C107.47 26.2 93.7801 27.41 86.1501 27.35V52.41L86.6301 53.84L86.1301 54.3L86.1501 84.87H77.6401L77.2801 84.51V19.42Z" fill="black"/>
<path d="M222.1 19.42V63.89C222.54 71.47 224.7 77.57 233.24 78.15C243.27 78.83 246.1 72.49 246.57 63.65V19.42H255.19V65.32C253.97 79.72 246.79 86.96 232.04 86.05C219.04 85.25 213.85 75.56 213.22 63.64V19.42H222.1Z" fill="black"/>
<path d="M202.68 19.42V27.33H177.51V48.18H202.68V55.84H177.51V76.46H202.68V84.84H168.63V19.42H202.68Z" fill="black"/>
<path d="M138.66 19.42V76.46H160.6L160.96 76.81V84.48L160.6 84.84H130.03V19.42H138.66Z" fill="black"/>
<path d="M123.98 146.02C136.66 144.51 138.01 163.23 126.28 164.38C114.08 165.57 112.85 147.35 123.98 146.02ZM123.98 148.18C116.81 149.23 116.78 161.26 124.18 162.24C134.58 163.62 134.7 146.62 123.98 148.18Z" fill="black"/>
<path d="M94.7801 146.2V156.03L102.8 146.43L105.81 146.21L98.9301 154.48L104.35 161.93C105.05 162.56 106.13 162.18 107.01 162.27V167.78H105.09L104.84 164.2L103.03 163.97L97.6501 156.29C97.3201 156.21 97.2601 156.34 97.0501 156.52C96.8101 156.73 94.7801 159.1 94.7801 159.28V164.19H92.6201V146.22H94.7801V146.2Z" fill="black"/>
<path d="M37.4801 146.2V164.17H35.3201V148.11H28.8501C28.5501 151.29 28.5801 154.64 28.1001 157.78C27.5501 161.4 26.4201 165.21 21.9101 164.15L21.8901 162.24C22.7301 162.24 23.5601 162.4 24.2801 161.88C26.5401 160.24 26.5001 149.1 26.6801 146.19H37.4701L37.4801 146.2Z" fill="black"/>
<path d="M197.41 146.2V164.17H195.25V148.11H188.78C188.7 150.92 188.62 153.8 188.27 156.59C187.78 160.51 186.97 165.27 181.82 164.17L182.08 162.28C184.4 162.51 184.99 161.35 185.53 159.38C186.64 155.35 186.46 150.37 186.61 146.2H197.41Z" fill="black"/>
<path d="M140.34 157.22V164.17H137.94V146.2H145.97C146.66 146.2 148.57 147.32 149.07 147.89C150.73 149.76 150.7 153.85 148.96 155.66C148.54 156.1 146.46 157.22 145.96 157.22H140.33H140.34ZM140.34 155.3H145.02C145.41 155.3 147 154.37 147.3 153.99C148.47 152.52 148.21 149.73 146.56 148.73C146.41 148.64 145.1 148.11 145.02 148.11H140.34V155.3Z" fill="black"/>
<path d="M19.0101 117.92V119.84H10.8601V124.63H16.0201C16.1301 124.63 17.2801 124.98 17.5101 125.06C21.1801 126.39 21.4001 132.14 18.1901 133.99C17.9701 134.11 16.5901 134.7 16.5001 134.7H8.95007V117.92H19.0201H19.0101ZM10.8601 126.54V132.65C12.1001 133.31 15.1801 133.07 16.5101 132.55C19.3901 131.42 18.2001 126.54 16.0101 126.54H10.8501H10.8601Z" fill="black"/>
<path d="M180.62 164.17C177.24 164.96 178.1 161.74 176.63 159.89H168.66L167.15 164.13L164.79 164.17L171.53 146.23L174.02 146.44L180.61 164.18L180.62 164.17ZM176.07 157.94L172.83 148.83L169.59 157.94H176.07Z" fill="black"/>
<path d="M73.2001 146.2V153.15H77.8801C78.6701 153.15 80.5601 153.84 81.2401 154.35C83.9201 156.36 83.7001 161.77 80.7201 163.41C80.4901 163.54 78.9501 164.17 78.8501 164.17H71.0601V146.2H73.2201H73.2001ZM73.2001 162.25H77.8801C77.9601 162.25 79.2701 161.73 79.4201 161.63C81.0301 160.66 81.2001 157.86 80.1201 156.41C79.8801 156.09 78.6501 155.3 78.3601 155.3H73.2001V162.25Z" fill="black"/>
<path d="M204.12 146.2V153.15H208.8C209.69 153.15 211.55 153.87 212.28 154.46C214.78 156.49 214.52 161.58 211.78 163.32C211.55 163.47 209.86 164.17 209.75 164.17H201.96V146.2H204.12ZM209.28 155.3C207.81 155.04 205.68 155.49 204.12 155.3V162.25H208.8C209.18 162.25 210.79 161.32 211.08 160.94C212.37 159.26 211.6 155.71 209.28 155.3Z" fill="black"/>
<path d="M240.33 146.2V153.15H245.01C245.8 153.15 247.69 153.84 248.37 154.35C250.73 156.12 250.88 160.93 248.72 162.84C248.34 163.17 246.34 164.17 245.98 164.17H238.19V146.2H240.35H240.33ZM240.33 162.25H245.01C246.66 162.25 247.98 160.33 248.01 158.76C248.04 157.47 246.89 155.3 245.49 155.3H240.33V162.25Z" fill="black"/>
<path d="M55.9401 117.92V127.02L63.2301 118.14L66.0101 117.92L59.8201 125.67L66.2501 134.69L63.6101 134.57L58.2201 127.27L55.9401 130.02V134.69H53.7801V117.92H55.9401Z" fill="black"/>
<path d="M114.92 117.92V126.78L122.22 118.14L124.99 117.92L118.8 125.67L125.23 134.69L122.6 134.57L117.2 127.27L114.92 130.02V134.69H112.77V117.92H114.92Z" fill="black"/>
<path d="M42.9901 117.92V134.7H41.0701V119.84H35.0801C34.5801 123.18 35.0801 132.83 31.6501 134.51C30.7001 134.97 29.6101 135.01 28.6301 134.67L28.6001 133.02C30.9601 133.27 31.5601 131.85 32.0401 129.87C32.9401 126.12 32.8601 121.76 32.9201 117.93H42.9901V117.92Z" fill="black"/>
<path d="M101.98 117.92V134.7H100.06V119.84H94.0701C93.5201 123.16 94.0701 132.83 90.6401 134.51C89.6901 134.97 88.6001 135.01 87.6201 134.67L87.5901 133.02C89.9501 133.27 90.5501 131.85 91.0301 129.87C91.9301 126.13 91.8301 121.76 91.9101 117.93H101.98V117.92Z" fill="black"/>
<path d="M234.57 128.22V134.69H232.41V117.91H239.96C240.14 117.91 241.43 118.43 241.69 118.58C244.76 120.33 244.77 125.75 241.65 127.51C241.43 127.63 240.05 128.22 239.96 128.22H234.56H234.57ZM239.49 119.83C238.08 119.58 236.06 120.01 234.57 119.83V126.54H238.29C238.58 126.54 240.12 126.03 240.45 125.82C242.68 124.41 242.11 120.29 239.49 119.83Z" fill="black"/>
<path d="M172.71 134.69H170.55V117.91H178.1C178.18 117.91 179.43 118.43 179.64 118.53C182.27 119.9 182.84 124.34 180.97 126.52C180.58 126.97 178.59 128.21 178.11 128.21H172.71V134.69ZM172.71 126.54H176.19C176.27 126.54 177.59 126.24 177.75 126.19C180.11 125.39 180.66 122.14 178.83 120.55C178.68 120.42 177.7 119.83 177.63 119.83H172.71V126.54Z" fill="black"/>
<path d="M214.43 117.92V124.39H218.63C219.39 124.39 221.34 125.08 221.99 125.59C224.08 127.23 224.18 131.71 222.19 133.46C221.89 133.73 220.1 134.69 219.83 134.69H212.28V117.91H214.44L214.43 117.92ZM214.43 133.01C216.19 132.97 219.98 133.26 221.01 131.55C221.5 130.74 221.56 128.91 221.21 128.03C220.91 127.29 219.38 126.29 218.63 126.29H214.43V133.01Z" fill="black"/>
<path d="M161.66 117.94L167.92 134.69L165.75 134.58L164.29 130.64L156.62 130.75L155.22 134.57L153.05 134.68L159.31 117.93H161.66V117.94ZM163.6 128.94C162.56 126.57 161.94 123.56 160.84 121.27C160.71 120.99 160.6 120.61 160.24 120.55L157.36 128.94H163.6Z" fill="black"/>
<path d="M14.4601 155.54L8.95007 146.19L11.4601 146.43L16.1301 153.86L20.4901 146.23L20.8001 146.17C21.1601 146.32 23.3501 145.86 23.0901 146.54L17.5801 155.53H20.9401V157.21H17.1001V164.16H14.9401V157.57L14.5801 157.21H10.8601V155.53H14.4601V155.54Z" fill="black"/>
<path d="M235.29 146.2V148.11H226.42V154.58H231.22V156.26H226.42V164.17H224.02V156.26L221.62 156.12V154.58H224.02V146.2H235.29Z" fill="black"/>
<path d="M247.48 117.96L252.91 127.75L257.15 117.96L259.27 117.92C259.32 118.19 259.24 118.4 259.16 118.65C258.17 121.78 254.79 129.11 253.17 132.07C251.55 135.03 249.82 135.65 246.56 134.21L247.28 132.3C249.4 133.76 251.38 132.67 251.81 130.26L245.12 118.04L247.48 117.96Z" fill="black"/>
<path d="M68.1701 146.2V148.11H62.6501V164.17H60.4901V148.47L60.1301 148.11H54.9801V146.2H68.1701Z" fill="black"/>
<path d="M53.5401 146.2V148.11H48.0301V164.17H45.8701V148.11H40.3501V146.2H53.5401Z" fill="black"/>
<path d="M165.28 146.2V148.11H159.76V164.17H157.6V148.11H152.09V146.2H165.28Z" fill="black"/>
<path d="M195.97 117.92V119.83H190.93V134.69H188.78V119.83H183.74V117.92H195.97Z" fill="black"/>
<path d="M79.9201 117.92L79.8801 119.44L79.5601 119.83H74.6401V134.69H72.7201V119.83H67.6901V117.92H79.9201Z" fill="black"/>
<path d="M209.64 117.92L209.6 119.44L209.28 119.83H204.36V134.69H202.44V119.83H197.41V117.92H209.64Z" fill="black"/>
<path d="M138.9 117.92L138.86 119.44L138.54 119.83H133.63V134.69H131.71V119.83H126.67V117.92H138.9Z" fill="black"/>
<path d="M88.0701 146.2H85.9101V164.17H88.0701V146.2Z" fill="black"/>
<path d="M218.99 146.2H216.83V164.17H218.99V146.2Z" fill="black"/>
<path d="M255.2 146.2H253.04V164.17H255.2V146.2Z" fill="black"/>
<path d="M49.4701 117.92H47.3101V134.7H49.4701V117.92Z" fill="black"/>
<path d="M228.34 117.92H226.18V134.7H228.34V117.92Z" fill="black"/>
<path d="M108.45 117.92H106.29V134.7H108.45V117.92Z" fill="black"/>
<path d="M25.7301 117.92H23.8101V134.7H25.7301V117.92Z" fill="black"/>
<path d="M143.7 117.92H141.78V134.7H143.7V117.92Z" fill="black"/>
<path d="M84.7101 117.92H82.7901V134.7H84.7101V117.92Z" fill="black"/>
</svg>
