<svg width="251" height="160" viewBox="0 0 251 160" fill="none" xmlns="http://www.w3.org/2000/svg">
<path d="M0 52.48V48.17C2.68 19.45 39.49 7.78 58.87 29.23C73.7 45.65 67.2 71.77 47.16 80.32C26.28 89.22 1.65 75.36 0 52.48ZM57.78 48.4C55.78 29.57 34.08 19.69 18.72 31.53C-2.08 47.57 13.73 79.57 39.32 74.16C45.86 72.78 52.15 67.91 55.1 61.89C55.84 60.38 56.1 60.25 55.03 58.94C47.09 49.22 32.77 49.46 21.53 51.58C19.82 51.9 18.02 52.63 16.31 52.59C27.95 43.32 44.44 42.18 57.79 48.39L57.78 48.4Z" fill="black"/>
<path d="M85.12 159.83C84.96 159.83 84.8 159.83 84.64 159.83C84.21 159.81 82.8 159.35 82.32 159.16C77.42 157.15 78.09 148.75 83.19 147.72C92.52 145.83 93.04 159.39 85.12 159.84V159.83ZM87.91 150.09C86.18 148.24 82.91 148.48 81.42 150.5C79.5 153.1 80.49 157.58 83.91 158.28C88.54 159.23 90.86 153.24 87.92 150.08L87.91 150.09Z" fill="black"/>
<path d="M28.29 159.83H28.05C19.98 158.99 20.52 146.84 29.14 147.6C34.99 148.12 35.74 157.23 30.69 159.23C30.24 159.41 28.68 159.82 28.29 159.83ZM27.51 148.86C22.18 149.7 22.83 158.64 28.4 158.4C34.43 158.14 33.68 147.89 27.51 148.86Z" fill="black"/>
<path d="M187.26 159.83C187.1 159.83 186.94 159.83 186.78 159.83C179.64 159.43 179.48 148.68 185.52 147.67C194.79 146.11 195.08 159.39 187.26 159.83ZM186.24 148.86C180.93 149.7 181.64 159.09 187.6 158.37C193.19 157.7 192.4 147.89 186.24 148.86Z" fill="black"/>
<path d="M58.98 159.83C58.73 159.82 57.33 159.42 57 159.29C56.73 159.18 55.18 158.16 55.15 158.01L55.98 156.71C57.1 158.87 62.12 159.16 61.62 156.12C61.3 154.17 56.19 154.04 55.67 151.74C54.67 147.33 59.99 146.45 62.7 148.79L62.09 149.99C60.85 149.38 59.99 148.49 58.43 148.84C56.87 149.19 56.46 151.21 57.93 152.11C60.18 153.49 64 153.38 62.94 157.43C62.59 158.75 60.71 159.71 59.46 159.82C59.3 159.83 59.14 159.82 58.98 159.82V159.83Z" fill="black"/>
<path d="M68.57 159.83C68.08 159.8 66.61 159.32 66.1 159.07C65.67 158.86 65.21 158.47 64.84 158.16L65.58 156.73C66.56 158.61 70.9 159.24 71.21 156.82C71.62 153.62 64.81 154.71 65.12 150.45C65.37 146.98 69.89 147.09 72.17 148.58L71.69 150C70.87 149.85 70.41 149.11 69.56 148.91C66.91 148.29 65.5 150.89 67.54 152.12C69.83 153.51 73.6 153.42 72.55 157.43C72.2 158.75 70.32 159.71 69.07 159.82C68.91 159.83 68.75 159.82 68.59 159.82L68.57 159.83Z" fill="black"/>
<path d="M75.53 19.41C86.56 20.2 103.56 16.75 112.46 24.8C117.28 29.16 118.82 37.51 117.42 43.66C115.51 52.05 107.13 57.4 98.79 57.39L117.25 81.71H106.82L84.64 52.35L95.31 51.99C101.97 51.8 108.85 49.02 109.58 41.57C111.12 25.67 95.06 26.94 83.93 27.07V50.93C84.05 51.89 84.82 51.78 83.91 52.58L83.93 81.71H75.54V19.41H75.53Z" fill="black"/>
<path d="M217.47 19.41V61.95C217.96 68.55 219.66 74.06 226.96 75.22C236.3 76.7 241.12 71.44 241.45 62.43V19.41H250.07V61.47C249.33 75.67 242.55 83.87 227.64 82.92C215.15 82.12 209.47 73.82 208.82 61.95V19.41H217.47Z" fill="black"/>
<path d="M198.53 19.41V26.84H173.59V46.73H198.53V53.92H173.95L173.59 54.28V73.81H198.53V81.71H164.96V19.41H198.53Z" fill="black"/>
<path d="M135.71 19.41V73.81H157.29V81.71H127.08V19.41H135.71Z" fill="black"/>
<path d="M250.8 101.6V103.76H4.68C4.05 103.25 4.39 102.33 4.32 101.6H250.8Z" fill="black"/>
<path d="M250.8 0L250.58 2.05H4.54L4.32 0H250.8Z" fill="black"/>
<path d="M3.36 120.05L5.39 120.3L13.67 132.27V120.05H15.59V135.39L13.48 135.34L5.27 123.41V135.39H3.36V120.05Z" fill="black"/>
<path d="M77.69 132.04V120.06H79.61V135.4C78.82 135.36 77.87 135.66 77.32 134.93L69.3 123.42V135.4H67.38V120.06C68.11 120.12 69.01 119.81 69.55 120.41L77.69 132.04Z" fill="black"/>
<path d="M55.81 119.88C66.13 118.49 67.39 134.55 57.88 135.61C47.54 136.76 46.37 121.16 55.81 119.88ZM56.54 121.55C49.36 121.94 49.67 134.05 56.93 133.96C64.19 133.87 64.24 121.13 56.54 121.55Z" fill="black"/>
<path d="M226.05 119.88C237.34 118.35 237.58 136.62 226.47 135.63C217.59 134.84 217.47 121.04 226.05 119.88ZM227.01 121.55C219.58 121.87 219.93 134.13 227.42 133.96C234.91 133.79 234.55 121.23 227.01 121.55Z" fill="black"/>
<path d="M143.14 120.05L145.01 120.1L153.45 132.27V120.05H155.13V135.39C154.4 135.33 153.5 135.64 152.96 135.04L144.82 123.41V135.39H143.14V120.05Z" fill="black"/>
<path d="M190.5 120.05C194.96 120.79 194.95 128.83 190.14 129.51L193.97 135.38L191.86 135.33L188.21 129.75L185.33 129.63V135.38H183.65V120.04C185.72 120.28 188.51 119.71 190.48 120.04L190.5 120.05ZM185.34 127.96H188.82C190.33 127.96 191.94 126.47 192.05 124.94C192.13 123.8 190.94 121.73 189.78 121.73H185.34V127.96Z" fill="black"/>
<path d="M244.69 120.05C249.28 120.81 249.23 128.82 244.33 129.51L248.4 135.38C247.83 135.33 247.15 135.48 246.61 135.38C245.58 135.18 243.43 130.65 242.41 129.75L239.53 129.63V135.38H237.85V120.04C239.92 120.28 242.71 119.71 244.68 120.04L244.69 120.05ZM243.97 121.73C242.7 121.51 240.88 121.89 239.53 121.73V127.6C240.65 128.28 243.26 128.03 244.5 127.53C247.1 126.48 246.67 122.21 243.97 121.73Z" fill="black"/>
<path d="M180.31 120.05C180.29 120.63 180.49 121.34 179.95 121.73H172.88V127H178.87V128.68H172.88V133.71H180.55V135.39H170.96V120.05H180.31Z" fill="black"/>
<path d="M139.55 120.05V121.73H132.35V127H138.35V128.68H132.35V133.71H140.03V135.39H130.44V120.05H139.55Z" fill="black"/>
<path d="M30.93 135.39C28.57 136 28.59 133.49 28.03 131.82L21.07 131.94L19.86 135.36L17.98 135.39L23.53 120.09L25.54 120.29L30.93 135.39ZM27.33 130.12L24.69 122.45C24.36 122.48 24.31 122.8 24.2 123.04C23.21 125.2 22.61 127.86 21.81 130.12H27.33Z" fill="black"/>
<path d="M89.65 120.08L95.19 135.39L93.31 135.35L92.1 131.94L85.15 131.83L84.05 135.16L82.01 135.39L87.55 120.08H89.66H89.65ZM91.35 130.12L88.59 122.45L85.83 130.12H91.35Z" fill="black"/>
<path d="M120.79 119.88C123.66 119.49 125.99 120.66 127.8 122.81L126.48 123.85C123.74 120.49 118 120.99 116.76 125.44C114.85 132.29 121.52 136.89 126.48 131.61L127.79 132.67C126.33 135.05 123.26 135.95 120.59 135.53C112.33 134.23 112.56 120.99 120.78 119.88H120.79Z" fill="black"/>
<path d="M205.48 147.61C205.88 147.67 206.55 147.48 206.87 147.66C207.4 147.96 210.68 155.28 211.11 155.27L215.34 147.65L216.98 147.61V159.59H215.54V150.48L211.73 157.03L210.55 157.15L206.92 150.72V159.59H205.48V147.61Z" fill="black"/>
<path d="M218.19 120.05V121.73H210.52V127.24H216.99V128.92H210.52V135.39H208.6V120.05H218.19Z" fill="black"/>
<path d="M101.18 156.96V147.61H102.62V159.59L100.99 159.54L94.47 150.24V159.59H93.03V147.61C93.45 147.62 93.89 147.54 94.3 147.66C95.37 147.97 99.67 155.94 101.18 156.96Z" fill="black"/>
<path d="M237.61 156.96V147.61H239.05V159.59C238.64 159.57 238.17 159.66 237.78 159.54C236.81 159.25 232.53 151.46 231.14 150.48V159.59H229.7V147.61L231.26 147.85L237.62 156.95L237.61 156.96Z" fill="black"/>
<path d="M17.86 147.61C21.61 148.23 21.64 154.42 17.74 154.92L20.86 159.59C20.35 159.55 19.63 159.74 19.18 159.47C18.55 159.09 16.93 155.54 16.3 155.16C15.78 154.85 14.76 155.12 14.14 155.04V159.59H12.7V147.61C14.27 147.79 16.36 147.36 17.86 147.61ZM14.15 153.6H17.63C17.96 153.6 18.96 152.57 19.08 152.18C20.13 148.8 16.54 148.64 14.15 148.81V153.6Z" fill="black"/>
<path d="M168.56 120.05V121.73H164V135.39H162.09V121.73H157.77V120.05H168.56Z" fill="black"/>
<path d="M130.44 159.59V147.61H135.12C135.45 147.61 137.11 148.37 137.48 148.61C140.82 150.82 140.7 156.92 137.05 158.88C136.75 159.04 135.33 159.59 135.12 159.59H130.44ZM132.03 148.84L131.74 149.03V158.17C140.42 160.18 140.82 147.65 132.03 148.84Z" fill="black"/>
<path d="M99.5 120.05V133.71H106.57C107.11 134.1 106.91 134.81 106.93 135.39H97.58V120.05H99.5Z" fill="black"/>
<path d="M41.72 120.05V121.73H37.16V135.39H35.49V121.73H30.93V120.05H41.72Z" fill="black"/>
<path d="M200.33 147.61C203.74 148.12 204.2 153.37 201.33 154.6C201.13 154.69 200.17 155.04 200.09 155.04H196.61V159.59H195.17V147.61C196.77 147.78 198.78 147.38 200.33 147.61ZM196.61 153.6H200.33C201.63 153.6 202.55 150.07 200.45 149.17C199.51 148.76 197.43 148.5 196.61 149.17V153.6Z" fill="black"/>
<path d="M170.24 147.61V148.81H164.84L164.48 149.17V152.88H169.28V154.32H164.48V158.04L164.84 158.39H170.72V159.59H163.04V147.61H170.24Z" fill="black"/>
<path d="M53.23 147.61V148.81H47.47V152.88H52.03V154.32H47.47V158.39H53.47V159.59H46.04V147.61H53.23Z" fill="black"/>
<path d="M114.61 159.59L113.2 159.56L112.06 156.75L106.91 156.87L105.94 159.56L104.54 159.59L108.89 147.65L110.41 147.84L114.6 159.58L114.61 159.59ZM107.42 155.52H111.74L109.7 149.53C109.17 149.42 109.4 149.76 109.28 150.06C108.59 151.84 108.05 153.72 107.42 155.52Z" fill="black"/>
<path d="M227.06 147.61V148.81H221.31V152.88H225.86V154.32H221.31V158.39H227.3V159.59H219.87V147.61H227.06Z" fill="black"/>
<path d="M3.84 155.04V159.59H2.64V147.61H7.8C7.89 147.61 8.93 148.1 9.11 148.22C10.85 149.39 11 152.47 9.61 153.97C9.29 154.32 7.71 155.04 7.33 155.04H3.84ZM3.84 153.6H7.56C8.06 153.6 8.9 152.47 9.02 151.94C9.69 148.95 5.9 148.14 3.84 149.17V153.6Z" fill="black"/>
<path d="M149.38 147.61V148.81H143.98L143.62 149.17V152.88H148.42V154.32H143.62V158.04L143.98 158.39H149.86V159.59H142.42V147.61H149.38Z" fill="black"/>
<path d="M152.7 147.64L156.21 157.43L159.66 147.74L161.12 147.6C160.59 148.98 157.26 159.35 156.65 159.55C156.22 159.7 155.6 159.63 155.38 159.2L151.28 147.6L152.68 147.63L152.7 147.64Z" fill="black"/>
<path d="M43.88 147.61V148.81H37.88V153.12H42.92V154.56H37.88V159.59H36.45V147.61H43.88Z" fill="black"/>
<path d="M249.6 147.61V148.81H246V159.59H244.57V148.81H240.97V147.61H249.6Z" fill="black"/>
<path d="M46.04 120.05H44.36V135.39H46.04V120.05Z" fill="black"/>
<path d="M174.31 147.61V158.39H180.07V159.59H172.87V147.61H174.31Z" fill="black"/>
<path d="M117.97 147.61V158.04L118.33 158.39H123.96V159.59H116.77V147.61H117.97Z" fill="black"/>
<path d="M76.49 147.61H75.05V159.59H76.49V147.61Z" fill="black"/>
</svg>
